<?xml version="1.0" encoding="utf-8"?>
<!-- Generator: Adobe Illustrator 16.0.0, SVG Export Plug-In . SVG Version: 6.00 Build 0)  -->
<!DOCTYPE svg PUBLIC "-//W3C//DTD SVG 1.1//EN" "http://www.w3.org/Graphics/SVG/1.1/DTD/svg11.dtd">
<svg version="1.1" id="Layer_1" xmlns="http://www.w3.org/2000/svg" xmlns:xlink="http://www.w3.org/1999/xlink" x="0px" y="0px"
	 width="478px" height="476px" viewBox="17.5 6.5 478 476" enable-background="new 17.5 6.5 478 476" xml:space="preserve">
<g id="_x23_020201ff">
	<path fill="#020201" d="M227.774,100.242c13.056-12.432,31.626-16.63,49.144-17.153c18.527-0.167,37.047-0.066,55.573-0.059
		c0.073,19.544,0.079,39.096-0.007,58.64c-11.975-0.021-23.955,0.029-35.928-0.021c-7.593-0.473-15.39,5.282-16.771,12.809
		c-0.183,13.078-0.063,26.162-0.058,39.24c17.561,0.073,35.121-0.021,52.682,0.044c-1.285,18.918-3.633,37.751-6.387,56.51
		c-15.51,0.146-31.03-0.014-46.543,0.081c-0.138,55.799,0.074,111.597-0.107,167.396c-23.039,0.095-46.092-0.044-69.13,0.065
		c-0.437-55.806,0.036-111.64-0.24-167.454c-11.24-0.117-22.486,0.081-33.726-0.095c0.043-18.759,0.015-37.517,0.021-56.27
		c11.232-0.138,22.472,0.029,33.705-0.08c0.341-18.237-0.342-36.495,0.356-54.716C211.486,124.749,216.986,110.21,227.774,100.242z"
		/>
</g>
<circle fill="none" stroke="#000000" stroke-width="14" stroke-miterlimit="10" cx="256.93" cy="245" r="228.5"/>
</svg>
