<?xml version="1.0" encoding="utf-8"?>
<!-- Generator: Adobe Illustrator 16.0.0, SVG Export Plug-In . SVG Version: 6.00 Build 0)  -->
<!DOCTYPE svg PUBLIC "-//W3C//DTD SVG 1.1//EN" "http://www.w3.org/Graphics/SVG/1.1/DTD/svg11.dtd">
<svg version="1.1" id="Layer_1" xmlns="http://www.w3.org/2000/svg" xmlns:xlink="http://www.w3.org/1999/xlink" x="0px" y="0px"
	 width="475px" height="475px" viewBox="102.215 77.25 475 475" enable-background="new 102.215 77.25 475 475"
	 xml:space="preserve">
<path d="M396.84,283.097h79.967v122.76c0,29.902-24.239,54.143-54.143,54.143H257.198c-29.902,0-54.144-24.241-54.144-54.143
	v-122.76h79.609c-8.148,11.45-12.957,25.439-12.957,40.562c0,38.685,31.361,70.045,70.047,70.045
	c38.687,0,70.045-31.36,70.045-70.045C409.797,308.535,404.989,294.545,396.84,283.097z M476.807,238.96v35.56h-87.152
	c-12.704-12.9-30.366-20.907-49.901-20.907c-19.537,0-37.199,8.005-49.904,20.907h-86.794v-35.56
	c0-18.249,9.039-34.377,22.873-44.186v58.303h11.102v-64.361c2.518-1.013,5.129-1.838,7.816-2.465v66.826h11.102v-68.229
	c0.418-0.01,0.832-0.031,1.252-0.031h6.41v68.259h11.102v-68.259h147.955C452.567,184.817,476.807,209.058,476.807,238.96z
	 M452.059,216.141c0-4.797-3.889-8.685-8.686-8.685h-29.268c-4.8,0-8.687,3.888-8.687,8.685v29.912c0,4.797,3.887,8.685,8.687,8.685
	h29.268c4.797,0,8.686-3.888,8.686-8.685V216.141z M285.788,323.659c0-16.155,7.145-30.664,18.43-40.562
	c3.959-3.471,8.424-6.371,13.275-8.578c6.791-3.089,14.321-4.824,22.258-4.824s15.467,1.735,22.26,4.824
	c4.853,2.207,9.314,5.107,13.273,8.578c11.286,9.897,18.432,24.406,18.432,40.562c0,29.755-24.207,53.964-53.965,53.964
	C309.997,377.623,285.788,353.414,285.788,323.659z M300.045,323.659c0,22.026,17.857,39.883,39.885,39.883
	c22.028,0,39.883-17.854,39.883-39.883c0-22.029-17.854-39.883-39.883-39.883C317.903,283.775,300.045,301.631,300.045,323.659z"/>
<circle fill="none" stroke="#000000" stroke-width="14" stroke-miterlimit="10" cx="339.93" cy="315" r="228.5"/>
</svg>
