<?xml version="1.0" standalone="no"?>
<!DOCTYPE svg PUBLIC "-//W3C//DTD SVG 1.1//EN" "http://www.w3.org/Graphics/SVG/1.1/DTD/svg11.dtd">
<svg width="400px" height="70px" version="1.1" xmlns="http://www.w3.org/2000/svg" xmlns:xlink="http://www.w3.org/1999/xlink" xml:space="preserve" style="fill-rule:evenodd;clip-rule:evenodd;stroke-linejoin:round;stroke-miterlimit:1.41421;">
    <g>
        <g id="Layer1">
            <g>
                <g>
                    <path d="M55.2855,65.2637L38.9623,65.2637L38.9623,45.2292L53.2799,45.2292L53.2799,41.6968L38.9623,41.6968L38.9623,4.76277L54.4233,4.76277L54.4233,1.32569L35.1464,1.32569L35.1464,68.7961L55.2855,68.7961L55.2855,65.2637Z" style="fill:rgb(35,31,32);fill-rule:nonzero;"/>
                </g>
                <g>
                    <path d="M182.628,68.7949L182.628,4.95217L194.75,4.95217L194.75,1.32453L166.693,1.32453L166.693,4.95217L178.81,4.95217L178.81,68.7949L182.628,68.7949Z" style="fill:rgb(35,31,32);fill-rule:nonzero;"/>
                </g>
                <g>
                    <path d="M153.308,65.2637L136.994,65.2637L136.994,45.2292L151.309,45.2292L151.309,41.6968L136.994,41.6968L136.994,4.76277L152.453,4.76277L152.453,1.32569L133.178,1.32569L133.178,68.7961L153.308,68.7961L153.308,65.2637Z" style="fill:rgb(35,31,32);fill-rule:nonzero;"/>
                </g>
                <g>
                    <path d="M287.754,68.7949L291.569,68.7949L291.569,45.228L304.365,45.228L304.365,68.7949L308.188,68.7949L308.188,45.228L322.503,45.228L322.503,41.698L308.188,41.698L308.188,21.696L324.801,21.696L324.801,18.166L304.365,18.166L304.365,41.698L291.569,41.698L291.569,4.76161L324.801,4.76161L324.801,1.32453L287.754,1.32453L287.754,68.7949Z" style="fill:rgb(35,31,32);fill-rule:nonzero;"/>
                </g>
                <g>
                    <path d="M78.444,66.1261C76.5431,66.1261 74.5445,65.8449 71.8813,64.518L70.8332,68.0364C73.7846,69.4656 76.162,69.6562 78.444,69.6562C86.3175,69.6562 92.7176,64.3135 92.7176,55.0829C92.7176,39.2709 74.8977,27.0029 74.8977,13.7891C74.8977,7.88403 78.8949,4.20294 83.4614,4.20294C85.0788,4.20294 87.3633,4.66772 89.3618,5.99468L90.6934,2.6645C88.4113,1.0517 85.6505,0.765859 83.4614,0.765859C76.801,0.765859 71.1864,6.17595 71.1864,13.7891C71.1864,28.2369 89.0063,40.7977 89.0063,55.0829C89.0063,61.6456 84.8488,66.1261 78.444,66.1261" style="fill:rgb(35,31,32);fill-rule:nonzero;"/>
                </g>
                <g>
                    <path d="M18.6145,65.1728L4.29913,65.1728L4.29913,1.32546L0.483253,1.32546L0.483253,68.7958L18.6145,68.7958L18.6145,65.1728Z" style="fill:rgb(35,31,32);fill-rule:nonzero;"/>
                </g>
                <g>
                    <path d="M236.87,0.615966C217.419,0.615966 203.278,16.0817 203.278,35.0565C203.278,54.1289 217.419,69.5086 236.87,69.5086C256.324,69.5086 270.465,54.1289 270.465,35.0565C270.465,16.0817 256.324,0.615966 236.87,0.615966M237.049,65.7345C219.971,65.7345 207.003,52.0466 207.003,35.0565C207.003,18.1592 219.789,4.39001 236.87,4.39001C253.951,4.39001 266.737,18.1592 266.737,35.0565C266.737,52.0466 253.502,65.7345 237.049,65.7345" style="fill:rgb(35,31,32);fill-rule:nonzero;"/>
                </g>
                <g>
                    <path d="M345.624,45.229L359.942,45.229L359.942,41.6966L345.624,41.6966L345.624,4.76254L361.083,4.76254L361.083,1.32546L341.809,1.32546L341.809,68.7958L361.948,68.7958L361.948,65.2635L345.624,65.2635L345.624,45.229Z" style="fill:rgb(35,31,32);fill-rule:nonzero;"/>
                </g>
                <g>
                    <path d="M381.561,13.7879C381.561,7.88519 385.559,4.20178 390.123,4.20178C391.74,4.20178 394.025,4.66656 396.025,5.99584L397.355,2.66566C395.07,1.05054 392.314,0.764697 390.123,0.764697C383.46,0.764697 377.845,6.17478 377.845,13.7879C377.845,28.2381 395.665,40.7966 395.665,55.084C395.665,61.6468 391.508,66.125 385.105,66.125C383.204,66.125 381.206,65.8438 378.543,64.5168L377.494,68.0375C380.446,69.4644 382.823,69.655 385.105,69.655C392.979,69.655 399.379,64.3123 399.379,55.084C399.379,39.2721 381.561,27.0018 381.561,13.7879" style="fill:rgb(35,31,32);fill-rule:nonzero;"/>
                </g>
            </g>
        </g>
    </g>
</svg>
