<?xml version="1.0" encoding="utf-8"?>
<!-- Generator: Adobe Illustrator 16.0.0, SVG Export Plug-In . SVG Version: 6.00 Build 0)  -->
<!DOCTYPE svg PUBLIC "-//W3C//DTD SVG 1.1//EN" "http://www.w3.org/Graphics/SVG/1.1/DTD/svg11.dtd">
<svg version="1.1" id="Layer_1" xmlns="http://www.w3.org/2000/svg" xmlns:xlink="http://www.w3.org/1999/xlink" x="0px" y="0px"
	 width="76px" height="75.834px" viewBox="0 0 76 75.834" enable-background="new 0 0 76 75.834" xml:space="preserve">
<path d="M66.85,9.226c-10.969-10.968-28.75-10.968-39.718,0c-10.968,10.967-10.968,28.75,0,39.718
	c10.968,10.968,28.75,10.968,39.718,0C77.818,37.976,77.818,20.194,66.85,9.226z M63.713,45.81c-9.236,9.234-24.209,9.234-33.446,0
	c-9.236-9.237-9.236-24.211,0-33.447c9.236-9.235,24.211-9.236,33.446,0C72.949,21.599,72.949,36.572,63.713,45.81z"/>
<rect x="10.153" y="46.704" transform="matrix(-0.7071 -0.7071 0.7071 -0.7071 -18.5737 115.2763)" width="8.869" height="29.562"/>
</svg>
